<svg xmlns="http://www.w3.org/2000/svg" width="746.88" height="746.88" viewBox="0 0 746.88 746.88" fill="#000"><style>@media (prefers-color-scheme: dark) { path { fill: #fff; } }</style><path d="M228.4 67.57 C232.35 71.1 234.93 75.77 235.94 80.94 C236.03 83.26 236.06 85.59 236.07 87.92 C236.07 88.62 236.07 89.33 236.07 90.05 C236.08 92.43 236.07 94.8 236.07 97.18 C236.08 98.89 236.08 100.61 236.08 102.33 C236.09 107.05 236.09 111.77 236.09 116.5 C236.09 121.59 236.1 126.68 236.11 131.77 C236.12 140.6 236.13 149.43 236.13 158.25 C236.14 172.21 236.17 186.16 236.19 200.12 C236.19 204.89 236.2 209.66 236.21 214.43 C236.21 215.63 236.21 216.82 236.22 218.05 C236.24 231.63 236.26 245.22 236.27 258.8 C236.27 260.04 236.28 261.28 236.28 262.56 C236.3 282.68 236.32 302.8 236.34 322.92 C236.36 343.58 236.39 364.23 236.42 384.88 C236.45 397.62 236.46 410.36 236.46 423.1 C236.47 431.84 236.48 440.57 236.5 449.3 C236.51 454.34 236.52 459.38 236.51 464.42 C236.51 469.03 236.52 473.65 236.54 478.27 C236.54 479.93 236.54 481.6 236.53 483.26 C236.47 501.34 240.62 517.43 253.56 530.76 C264.91 541.18 276.89 545.1 292.06 545.08 C292.57 545.08 292.57 545.08 295.17 545.09 C298.62 545.1 302.07 545.1 305.52 545.1 C308 545.1 310.47 545.11 312.94 545.11 C318.27 545.13 323.59 545.13 328.92 545.14 C337.34 545.15 345.76 545.17 354.18 545.19 C357.06 545.2 359.94 545.21 362.83 545.22 C363.55 545.22 364.27 545.22 365.01 545.22 C373.2 545.24 381.4 545.26 389.59 545.28 C390.34 545.28 391.09 545.28 391.86 545.28 C404 545.31 416.14 545.33 428.28 545.35 C440.75 545.36 453.22 545.39 465.68 545.43 C473.37 545.45 481.06 545.47 488.75 545.47 C494.64 545.47 500.53 545.49 506.42 545.51 C508.84 545.52 511.25 545.52 513.67 545.52 C516.97 545.52 520.26 545.53 523.56 545.55 C524.52 545.54 525.47 545.54 526.46 545.53 C533.58 545.6 538.45 546.61 543.81 551.63 C546.24 555.41 547.44 558.44 546.94 562.94 C544.7 570.34 539.54 574.92 534.18 580.26 C533.17 581.29 532.15 582.31 531.14 583.34 C528.4 586.11 525.65 588.87 522.89 591.62 C520.58 593.93 518.28 596.25 515.97 598.56 C510.53 604.03 505.08 609.49 499.62 614.95 C494.01 620.55 488.42 626.17 482.84 631.8 C478.03 636.65 473.21 641.49 468.38 646.32 C465.5 649.19 462.63 652.07 459.77 654.97 C457.07 657.7 454.36 660.41 451.64 663.11 C450.65 664.09 449.66 665.08 448.69 666.08 C440.32 674.61 429.95 682.4 417.55 683.07 C417.14 683.07 417.14 683.07 415.03 683.08 C414.07 683.08 413.1 683.08 412.11 683.09 C411.58 683.09 411.58 683.09 408.91 683.09 C408.35 683.09 408.35 683.09 405.5 683.1 C401.72 683.11 397.95 683.11 394.17 683.12 C391.46 683.12 388.75 683.13 386.04 683.14 C377.91 683.16 369.78 683.17 361.64 683.18 C357.81 683.18 353.97 683.19 350.13 683.19 C337.36 683.21 324.59 683.22 311.82 683.23 C308.51 683.23 305.2 683.23 301.88 683.24 C301.06 683.24 300.24 683.24 299.39 683.24 C286.08 683.25 272.77 683.27 259.47 683.3 C245.78 683.34 232.09 683.35 218.4 683.36 C210.73 683.36 203.06 683.37 195.38 683.39 C188.84 683.42 182.3 683.42 175.75 683.41 C172.42 683.41 169.09 683.41 165.76 683.43 C127.39 683.62 93.4 673.07 63.94 647.94 C63.54 647.61 63.54 647.61 61.57 645.95 C56.56 641.62 52.09 637.09 47.94 631.94 C47.25 631.09 46.56 630.24 45.85 629.37 C26.06 603.96 14.59 573.75 14.67 541.42 C14.66 539.99 14.66 538.56 14.65 537.13 C14.64 533.22 14.64 529.32 14.64 525.42 C14.64 521.2 14.63 516.98 14.62 512.76 C14.61 504.5 14.6 496.24 14.6 487.98 C14.6 481.26 14.6 474.54 14.59 467.82 C14.57 448.74 14.56 429.65 14.56 410.57 C14.56 409.54 14.56 408.51 14.56 407.45 C14.56 406.42 14.56 405.4 14.56 404.34 C14.57 387.68 14.55 371.02 14.52 354.37 C14.49 337.23 14.48 320.09 14.48 302.96 C14.48 293.35 14.47 283.74 14.45 274.14 C14.43 265.95 14.43 257.77 14.44 249.59 C14.45 245.42 14.45 241.26 14.43 237.09 C14.35 215.55 14.7 194.85 23.94 174.94 C24.43 173.87 24.92 172.79 25.42 171.68 C29.66 163.13 35.08 156.51 41.94 149.94 C42.51 149.38 43.08 148.82 43.68 148.24 C48.94 143.35 54.59 140.15 61 136.94 C61.56 136.65 61.56 136.65 64.43 135.19 C90.48 121.97 116.84 109.33 143.17 96.67 C152 92.42 160.76 88.05 169.51 83.64 C179.51 78.62 189.6 73.8 199.71 69.01 C201.63 68.09 203.53 67.14 205.44 66.18 C212.56 62.64 221.68 63.23 228.4 67.57 Z"/><path d="M420.1 363.68 C421.39 363.68 422.69 363.67 424.02 363.67 C427.59 363.66 431.16 363.66 434.73 363.66 C438.59 363.67 442.45 363.66 446.3 363.65 C453.85 363.64 461.4 363.64 468.95 363.64 C475.08 363.64 481.21 363.64 487.35 363.63 C488.22 363.63 489.09 363.63 489.99 363.63 C491.77 363.63 493.55 363.63 495.32 363.63 C511.95 363.62 528.59 363.62 545.22 363.63 C560.44 363.63 575.65 363.62 590.87 363.6 C606.5 363.58 622.14 363.57 637.77 363.58 C646.54 363.58 655.32 363.58 664.09 363.56 C671.56 363.55 679.02 363.55 686.49 363.56 C690.29 363.57 694.1 363.57 697.91 363.56 C702.04 363.54 706.16 363.55 710.29 363.57 C711.5 363.56 712.7 363.55 713.94 363.54 C724.09 363.61 724.09 363.61 728.94 366.94 C731.57 369.67 732.47 371.8 732.69 375.57 C732.45 382.66 727.83 386.29 722.94 390.94 C721.06 392.81 719.19 394.69 717.32 396.57 C716.38 397.49 715.45 398.41 714.49 399.36 C712.4 401.48 710.43 403.61 708.5 405.88 C705 409.98 701.18 413.73 697.35 417.52 C693.99 420.85 690.84 424.28 687.78 427.88 C685.44 430.51 682.94 432.97 680.44 435.44 C677.39 438.45 674.4 441.48 671.63 444.75 C667.7 449.36 663.36 453.55 659.06 457.8 C655.44 461.39 652.01 465.06 648.71 468.95 C645.94 472.06 642.95 474.95 639.99 477.87 C636.72 481.11 633.67 484.47 630.69 487.98 C627.95 491.06 624.99 493.91 622.04 496.78 C620.24 498.64 618.77 500.48 617.25 502.57 C612.18 508.7 602.64 512.71 594.94 513.94 C593.09 514.03 591.24 514.07 589.39 514.07 C588.28 514.08 587.17 514.08 586.03 514.08 C584.81 514.08 583.6 514.08 582.35 514.08 C581.05 514.08 579.76 514.09 578.42 514.09 C574.83 514.1 571.24 514.1 567.65 514.1 C563.77 514.1 559.9 514.11 556.03 514.12 C547.56 514.13 539.09 514.14 530.62 514.14 C525.33 514.14 520.05 514.15 514.76 514.15 C500.12 514.16 485.48 514.17 470.85 514.18 C469.91 514.18 468.97 514.18 468.01 514.18 C467.07 514.18 466.13 514.18 465.16 514.18 C463.26 514.18 461.36 514.18 459.46 514.18 C458.98 514.18 458.98 514.18 456.6 514.18 C441.3 514.19 426 514.2 410.7 514.23 C395 514.25 379.29 514.26 363.59 514.26 C354.77 514.26 345.95 514.27 337.13 514.29 C329.62 514.3 322.12 514.31 314.61 514.3 C310.78 514.3 306.95 514.3 303.12 514.31 C298.97 514.33 294.81 514.32 290.66 514.31 C289.45 514.32 288.24 514.32 286.99 514.33 C280.42 514.29 275.34 514.11 270.3 509.41 C267.39 505.61 265.79 503.45 265.69 498.69 C265.67 497.94 265.64 497.2 265.61 496.43 C266.42 490.29 270.27 486.19 274.53 482.01 C275.08 481.46 275.64 480.9 276.22 480.32 C278.05 478.49 279.9 476.67 281.75 474.84 C283.03 473.56 284.31 472.28 285.6 471 C288.97 467.64 292.36 464.29 295.74 460.93 C299.18 457.53 302.6 454.12 306.03 450.7 C311.57 445.19 317.12 439.68 322.67 434.18 C326.43 430.45 330.19 426.72 333.9 422.95 C334.51 422.33 335.12 421.71 335.75 421.07 C336.06 420.76 336.06 420.76 337.59 419.2 C339.52 417.34 341.49 415.61 343.53 413.86 C348.22 409.77 352.56 405.36 356.9 400.9 C358.61 399.17 360.31 397.44 362.02 395.71 C364.67 393.01 367.32 390.31 369.96 387.6 C372.54 384.96 375.12 382.33 377.71 379.71 C378.49 378.91 379.27 378.1 380.07 377.27 C391.75 365.54 404.05 363.63 420.1 363.68 Z"/></svg>
