<svg xmlns="http://www.w3.org/2000/svg" width="1024" height="1024" viewBox="0 0 1024 1024" fill="none"><rect x="0.0" y="0.0" width="1024" height="1024" rx="229.07" ry="229.07" fill="#FFFFFF"/><g id="tray-glyph" fill="#0B0D10"><g transform="translate(153.600 202.586) scale(0.999721)"><path d="M213.46 3.63 C217.41 7.16 219.99 11.83 221 17 C221.09 19.32 221.12 21.65 221.13 23.98 C221.13 24.68 221.13 25.39 221.13 26.11 C221.14 28.49 221.13 30.86 221.13 33.24 C221.14 34.95 221.14 36.67 221.14 38.39 C221.15 43.11 221.15 47.83 221.15 52.56 C221.15 57.65 221.16 62.74 221.17 67.83 C221.18 76.66 221.19 85.49 221.19 94.31 C221.2 108.27 221.23 122.22 221.25 136.18 C221.25 140.95 221.26 145.72 221.27 150.49 C221.27 151.69 221.27 152.88 221.28 154.11 C221.3 167.69 221.32 181.28 221.33 194.86 C221.33 196.1 221.34 197.34 221.34 198.62 C221.36 218.74 221.38 238.86 221.4 258.98 C221.42 279.64 221.45 300.29 221.48 320.94 C221.51 333.68 221.52 346.42 221.52 359.16 C221.53 367.9 221.54 376.63 221.56 385.36 C221.57 390.4 221.58 395.44 221.57 400.48 C221.57 405.09 221.58 409.71 221.6 414.33 C221.6 415.99 221.6 417.66 221.59 419.32 C221.53 437.4 225.68 453.49 238.62 466.82 C249.97 477.24 261.95 481.16 277.12 481.14 C277.63 481.14 277.63 481.14 280.23 481.15 C283.68 481.16 287.13 481.16 290.58 481.16 C293.06 481.16 295.53 481.17 298 481.17 C303.33 481.19 308.65 481.19 313.98 481.2 C322.4 481.21 330.82 481.23 339.24 481.25 C342.12 481.26 345 481.27 347.89 481.28 C348.61 481.28 349.33 481.28 350.07 481.28 C358.26 481.3 366.46 481.32 374.65 481.34 C375.4 481.34 376.15 481.34 376.92 481.34 C389.06 481.37 401.2 481.39 413.34 481.41 C425.81 481.42 438.28 481.45 450.74 481.49 C458.43 481.51 466.12 481.53 473.81 481.53 C479.7 481.53 485.59 481.55 491.48 481.57 C493.9 481.58 496.31 481.58 498.73 481.58 C502.03 481.58 505.32 481.59 508.62 481.61 C509.58 481.6 510.53 481.6 511.52 481.59 C518.64 481.66 523.51 482.67 528.87 487.69 C531.3 491.47 532.5 494.5 532 499 C529.76 506.4 524.6 510.98 519.24 516.32 C518.23 517.35 517.21 518.37 516.2 519.4 C513.46 522.17 510.71 524.93 507.95 527.68 C505.64 529.99 503.34 532.31 501.03 534.62 C495.59 540.09 490.14 545.55 484.68 551.01 C479.07 556.61 473.48 562.23 467.9 567.86 C463.09 572.71 458.27 577.55 453.44 582.38 C450.56 585.25 447.69 588.13 444.83 591.03 C442.13 593.76 439.42 596.47 436.7 599.17 C435.71 600.15 434.72 601.14 433.75 602.14 C425.38 610.67 415.01 618.46 402.61 619.13 C402.2 619.13 402.2 619.13 400.09 619.14 C399.13 619.14 398.16 619.14 397.17 619.15 C396.64 619.15 396.64 619.15 393.97 619.15 C393.41 619.15 393.41 619.15 390.56 619.16 C386.78 619.17 383.01 619.17 379.23 619.18 C376.52 619.18 373.81 619.19 371.1 619.2 C362.97 619.22 354.84 619.23 346.7 619.24 C342.87 619.24 339.03 619.25 335.19 619.25 C322.42 619.27 309.65 619.28 296.88 619.29 C293.57 619.29 290.26 619.29 286.94 619.3 C286.12 619.3 285.3 619.3 284.45 619.3 C271.14 619.31 257.83 619.33 244.53 619.36 C230.84 619.4 217.15 619.41 203.46 619.42 C195.79 619.42 188.12 619.43 180.44 619.45 C173.9 619.48 167.36 619.48 160.81 619.47 C157.48 619.47 154.15 619.47 150.82 619.49 C112.45 619.68 78.46 609.13 49 584 C48.6 583.67 48.6 583.67 46.63 582.01 C41.62 577.68 37.15 573.15 33 568 C32.31 567.15 31.62 566.3 30.91 565.43 C11.12 540.02 -0.35 509.81 -0.27 477.48 C-0.28 476.05 -0.28 474.62 -0.29 473.19 C-0.3 469.28 -0.3 465.38 -0.3 461.48 C-0.3 457.26 -0.31 453.04 -0.32 448.82 C-0.33 440.56 -0.34 432.3 -0.34 424.04 C-0.34 417.32 -0.34 410.6 -0.35 403.88 C-0.37 384.8 -0.38 365.71 -0.38 346.63 C-0.38 345.6 -0.38 344.57 -0.38 343.51 C-0.38 342.48 -0.38 341.46 -0.38 340.4 C-0.37 323.74 -0.39 307.08 -0.42 290.43 C-0.45 273.29 -0.46 256.15 -0.46 239.02 C-0.46 229.41 -0.47 219.8 -0.49 210.2 C-0.51 202.01 -0.51 193.83 -0.5 185.65 C-0.49 181.48 -0.49 177.32 -0.51 173.15 C-0.59 151.61 -0.24 130.91 9 111 C9.49 109.93 9.98 108.85 10.48 107.74 C14.72 99.19 20.14 92.57 27 86 C27.57 85.44 28.14 84.88 28.74 84.3 C34 79.41 39.65 76.21 46.06 73 C46.62 72.71 46.62 72.71 49.49 71.25 C75.54 58.03 101.9 45.39 128.23 32.73 C137.06 28.48 145.82 24.11 154.57 19.7 C164.57 14.68 174.66 9.86 184.77 5.07 C186.69 4.15 188.59 3.2 190.5 2.24 C197.62 -1.3 206.74 -0.71 213.46 3.63 Z"/><path d="M405.16 299.74 C406.45 299.74 407.75 299.73 409.08 299.73 C412.65 299.72 416.22 299.72 419.79 299.72 C423.65 299.73 427.51 299.72 431.36 299.71 C438.91 299.7 446.46 299.7 454.01 299.7 C460.14 299.7 466.27 299.7 472.41 299.69 C473.28 299.69 474.15 299.69 475.05 299.69 C476.83 299.69 478.61 299.69 480.38 299.69 C497.01 299.68 513.65 299.68 530.28 299.69 C545.5 299.69 560.71 299.68 575.93 299.66 C591.56 299.64 607.2 299.63 622.83 299.64 C631.6 299.64 640.38 299.64 649.15 299.62 C656.62 299.61 664.08 299.61 671.55 299.62 C675.35 299.63 679.16 299.63 682.97 299.62 C687.1 299.6 691.22 299.61 695.35 299.63 C696.56 299.62 697.76 299.61 699 299.6 C709.15 299.67 709.15 299.67 714 303 C716.63 305.73 717.53 307.86 717.75 311.63 C717.51 318.72 712.89 322.35 708 327 C706.12 328.87 704.25 330.75 702.38 332.63 C701.44 333.55 700.51 334.47 699.55 335.42 C697.46 337.54 695.49 339.67 693.56 341.94 C690.06 346.04 686.24 349.79 682.41 353.58 C679.05 356.91 675.9 360.34 672.84 363.94 C670.5 366.57 668 369.03 665.5 371.5 C662.45 374.51 659.46 377.54 656.69 380.81 C652.76 385.42 648.42 389.61 644.12 393.86 C640.5 397.45 637.07 401.12 633.77 405.01 C631 408.12 628.01 411.01 625.05 413.93 C621.78 417.17 618.73 420.53 615.75 424.04 C613.01 427.12 610.05 429.97 607.1 432.84 C605.3 434.7 603.83 436.54 602.31 438.63 C597.24 444.76 587.7 448.77 580 450 C578.15 450.09 576.3 450.13 574.45 450.13 C573.34 450.14 572.23 450.14 571.09 450.14 C569.87 450.14 568.66 450.14 567.41 450.14 C566.11 450.14 564.82 450.15 563.48 450.15 C559.89 450.16 556.3 450.16 552.71 450.16 C548.83 450.16 544.96 450.17 541.09 450.18 C532.62 450.19 524.15 450.2 515.68 450.2 C510.39 450.2 505.11 450.21 499.82 450.21 C485.18 450.22 470.54 450.23 455.91 450.24 C454.97 450.24 454.03 450.24 453.07 450.24 C452.13 450.24 451.19 450.24 450.22 450.24 C448.32 450.24 446.42 450.24 444.52 450.24 C444.04 450.24 444.04 450.24 441.66 450.24 C426.36 450.25 411.06 450.26 395.76 450.29 C380.06 450.31 364.35 450.32 348.65 450.32 C339.83 450.32 331.01 450.33 322.19 450.35 C314.68 450.36 307.18 450.37 299.67 450.36 C295.84 450.36 292.01 450.36 288.18 450.37 C284.03 450.39 279.87 450.38 275.72 450.37 C274.51 450.38 273.3 450.38 272.05 450.39 C265.48 450.35 260.4 450.17 255.36 445.47 C252.45 441.67 250.85 439.51 250.75 434.75 C250.73 434 250.7 433.26 250.67 432.49 C251.48 426.35 255.33 422.25 259.59 418.07 C260.14 417.52 260.7 416.96 261.28 416.38 C263.11 414.55 264.96 412.73 266.81 410.9 C268.09 409.62 269.37 408.34 270.66 407.06 C274.03 403.7 277.42 400.35 280.8 396.99 C284.24 393.59 287.66 390.18 291.09 386.76 C296.63 381.25 302.18 375.74 307.73 370.24 C311.49 366.51 315.25 362.78 318.96 359.01 C319.57 358.39 320.18 357.77 320.81 357.13 C321.12 356.82 321.12 356.82 322.65 355.26 C324.58 353.4 326.55 351.67 328.59 349.92 C333.28 345.83 337.62 341.42 341.96 336.96 C343.67 335.23 345.37 333.5 347.08 331.77 C349.73 329.07 352.38 326.37 355.02 323.66 C357.6 321.02 360.18 318.39 362.77 315.77 C363.55 314.97 364.33 314.16 365.13 313.33 C376.81 301.6 389.11 299.69 405.16 299.74 Z"/></g></g></svg>
